<?xml version="1.0" encoding="UTF-8" standalone="no"?>
<!DOCTYPE svg PUBLIC "-//W3C//DTD SVG 1.1//EN" "http://www.w3.org/Graphics/SVG/1.1/DTD/svg11.dtd">
<svg version="1.1" xmlns="http://www.w3.org/2000/svg" xmlns:xlink="http://www.w3.org/1999/xlink" preserveAspectRatio="xMidYMid meet" viewBox="0 0 640 640" width="640" height="640"><defs><path d="M613.29 162.8C601.9 162.8 550.09 171.13 507.42 184.84C504.66 185.73 502.5 186.16 500.8 186.16C497.5 186.16 496.22 184.6 493.63 181.06C490.52 176.79 486.25 170.94 474.8 166.04C470.08 164.01 464.6 162.98 458.51 162.98C434.55 162.98 404.25 178.67 386.47 200.3C386.36 200.43 386.3 200.46 386.29 200.46C384.75 200.46 379.4 194.45 370.15 171.7C363.39 155.07 356.44 134.01 352.45 118.04C346.46 94.09 329.06 60.42 317.55 38.14C312.64 28.63 308.76 21.12 307.78 18.19C307.03 15.94 305.84 14.79 304.26 14.79C303.24 14.79 302.26 15.29 301.27 16.33C290.05 28.1 267.11 126.3 268.55 156.43C269.73 181.17 289.26 197.9 298.65 205.94C299.76 206.89 300.94 207.91 301.87 208.76C296.87 206.97 286.41 198.41 272.54 187.06C252.51 170.69 222.26 145.94 181.28 118.89C123.87 81 87.1 43.44 65.13 21.01C50.5 6.07 44.38 0 40.09 0C39.07 0 37.22 0.38 36.25 2.95C31.33 16.09 37.52 151.95 98.73 225.4C132.9 266.41 176.48 287.46 205.31 301.4C221.93 309.42 235.05 315.77 237.08 321.72C237.54 323.07 237.42 324.37 236.7 325.8C233.98 331.26 229.22 337.92 223.2 346.37C206.64 369.59 181.61 404.7 163.29 463.21C155.05 489.5 68.98 581.6 46.59 603.99C45.5 605.08 19.89 630.81 22.9 638.08C23.14 638.66 23.93 640 26.11 640C31.47 640 45.58 630.83 68.08 612.71C97.52 588.99 117.62 569.15 132.3 554.65C146.59 540.54 155.53 531.74 161.67 530.79C161.11 533.79 159.34 541.52 153.96 561C153.83 561.47 153.56 562.58 154.17 563.39C154.21 563.45 154.41 563.77 154.77 564.36C155.27 564.36 155.55 564.36 155.6 564.36C155.61 564.36 155.61 564.36 155.61 564.36C156.91 564.36 157.58 563.31 163.24 556.29C180.51 534.87 233.04 469.4 306.02 455.07C348.78 446.67 401.88 407.01 420.62 347.46C448.97 257.4 472.7 200.75 597.87 172.06C617.63 167.53 617.5 166.42 617.31 164.73C617.09 162.8 614.71 162.8 613.29 162.8Z" id="ayZdQ3kpy"></path></defs><g><g><g><use xlink:href="#ayZdQ3kpy" opacity="1" fill="#f5d2ff" fill-opacity="1"></use><g><use xlink:href="#ayZdQ3kpy" opacity="1" fill-opacity="0" stroke="#000000" stroke-width="1" stroke-opacity="0"></use></g></g></g></g></svg>